<svg xmlns="http://www.w3.org/2000/svg" xmlns:xlink="http://www.w3.org/1999/xlink" width="500" zoomAndPan="magnify" viewBox="0 0 375 374.999991" height="500" preserveAspectRatio="xMidYMid meet" version="1.0"><defs><clipPath id="296ea9545a"><path d="M 157.402344 95 L 197.359375 95 L 197.359375 175.71875 L 157.402344 175.71875 Z M 157.402344 95 " clip-rule="nonzero"/></clipPath><clipPath id="280d3b9cd7"><path d="M 157.398438 185.847656 L 234.335938 185.847656 L 234.335938 262.628906 L 157.398438 262.628906 Z M 157.398438 185.847656 " clip-rule="nonzero"/></clipPath><clipPath id="0f87dee457"><path d="M 234.304688 262.628906 L 157.398438 262.628906 L 157.398438 185.847656 Z M 234.304688 262.628906 " clip-rule="nonzero"/></clipPath></defs><rect x="-37.5" width="450" fill="#ffffff" y="-37.499999" height="449.999989" fill-opacity="1"/><rect x="-37.5" width="450" fill="#006ddd" y="-37.499999" height="449.999989" fill-opacity="1"/><g clip-path="url(#296ea9545a)"><path fill="#ffffff" d="M 157.402344 95.332031 C 179.609375 95.332031 197.609375 113.332031 197.609375 135.539062 C 197.609375 157.75 179.609375 175.679688 157.402344 175.679688 Z M 157.402344 95.332031 " fill-opacity="1" fill-rule="nonzero"/></g><g clip-path="url(#280d3b9cd7)"><g clip-path="url(#0f87dee457)"><path fill="#ffffff" d="M 157.398438 185.847656 L 234.335938 185.847656 L 234.335938 262.628906 L 157.398438 262.628906 Z M 157.398438 185.847656 " fill-opacity="1" fill-rule="nonzero"/></g></g></svg>