<svg width="5475" height="3080" viewBox="0 0 5475 3080" fill="none" xmlns="http://www.w3.org/2000/svg">
<mask id="mask0_1_2" style="mask-type:luminance" maskUnits="userSpaceOnUse" x="446" y="1251" width="138" height="278">
<path d="M446.418 1251.01H583.664V1528.24H446.418V1251.01Z" fill="white"/>
</mask>
<g mask="url(#mask0_1_2)">
<path d="M446.418 1252.07C522.697 1252.07 584.526 1313.9 584.526 1390.19C584.526 1466.51 522.697 1528.1 446.418 1528.1V1252.07Z" fill="#222222"/>
</g>
<mask id="mask1_1_2" style="mask-type:luminance" maskUnits="userSpaceOnUse" x="446" y="1563" width="265" height="264">
<path d="M446.389 1563.04H710.693V1826.82H446.389V1563.04Z" fill="white"/>
</mask>
<g mask="url(#mask1_1_2)">
<mask id="mask2_1_2" style="mask-type:luminance" maskUnits="userSpaceOnUse" x="446" y="1563" width="265" height="264">
<path d="M710.589 1826.82H446.389V1563.04L710.589 1826.82Z" fill="white"/>
</mask>
<g mask="url(#mask2_1_2)">
<path d="M446.389 1563.04H710.693V1826.82H446.389V1563.04Z" fill="#222222"/>
</g>
</g>
<mask id="mask3_1_2" style="mask-type:luminance" maskUnits="userSpaceOnUse" x="800" y="1251" width="659" height="576">
<path d="M800.323 1251.92H1458.25V1826.82H800.323V1251.92Z" fill="white"/>
</mask>
<g mask="url(#mask3_1_2)">
<mask id="mask4_1_2" style="mask-type:luminance" maskUnits="userSpaceOnUse" x="800" y="1251" width="658" height="576">
<path d="M1128.8 1251.92L1457.3 1826.82H800.323L1128.8 1251.92Z" fill="white"/>
</mask>
<g mask="url(#mask4_1_2)">
<path d="M800.323 1251.92H1458.25V1826.82H800.323V1251.92Z" fill="#222222"/>
</g>
</g>
<mask id="mask5_1_2" style="mask-type:luminance" maskUnits="userSpaceOnUse" x="1666" y="1251" width="137" height="278">
<path d="M1666.19 1251.01H1802.57V1528.24H1666.19V1251.01Z" fill="white"/>
</mask>
<g mask="url(#mask5_1_2)">
<path d="M1803.44 1252.07C1727.16 1252.07 1665.31 1313.9 1665.31 1390.19C1665.31 1466.51 1727.16 1528.1 1803.44 1528.1V1252.07Z" fill="#222222"/>
</g>
<mask id="mask6_1_2" style="mask-type:luminance" maskUnits="userSpaceOnUse" x="1539" y="1562" width="265" height="265">
<path d="M1539.72 1562.49H1803.46V1826.79H1539.72V1562.49Z" fill="white"/>
</mask>
<g mask="url(#mask6_1_2)">
<mask id="mask7_1_2" style="mask-type:luminance" maskUnits="userSpaceOnUse" x="1539" y="1562" width="265" height="265">
<path d="M1803.46 1562.59V1826.79H1539.72L1803.46 1562.59Z" fill="white"/>
</mask>
<g mask="url(#mask7_1_2)">
<path d="M1539.72 1562.49H1803.46V1826.79H1539.72V1562.49Z" fill="#222222"/>
</g>
</g>
<mask id="mask8_1_2" style="mask-type:luminance" maskUnits="userSpaceOnUse" x="2281" y="1319" width="2890" height="442">
<path d="M5170.83 1319.46H2281.25V1760.54H5170.83V1319.46Z" fill="white"/>
</mask>
<g mask="url(#mask8_1_2)">
<path d="M2306.87 1648.7V1339.28H2364.44V1464.52H2554.25V1339.28H2611.87V1648.7H2554.25V1510.39H2364.44V1648.7H2306.87Z" fill="black"/>
<path d="M2798.57 1657.02C2769.18 1657.02 2743.06 1651.85 2720.22 1641.51C2697.4 1631.18 2679.52 1616.92 2666.57 1598.74C2653.62 1580.56 2647.15 1559.69 2647.15 1536.11C2647.15 1513.15 2653.1 1492.79 2665.03 1475.04C2676.98 1457.3 2693.42 1443.41 2714.33 1433.39C2735.28 1423.33 2759.28 1418.3 2786.34 1418.3C2813.1 1418.3 2836.54 1423.26 2856.62 1433.15C2876.7 1443.01 2892.39 1456.68 2903.73 1474.15C2915.09 1491.61 2920.78 1511.84 2920.78 1534.81C2920.78 1537.7 2920.61 1540.91 2920.3 1544.43C2920.02 1547.92 2919.59 1550.97 2918.99 1553.58H2702.57C2704.62 1566.39 2710.24 1577.59 2719.38 1587.21C2728.53 1596.81 2740.24 1604.29 2754.49 1609.67C2768.75 1615.06 2784.45 1617.75 2801.6 1617.75C2822.28 1617.75 2841.76 1614.18 2860.06 1607.05C2878.39 1599.92 2892.08 1590.98 2901.11 1580.2L2928.62 1605.93C2921.04 1615.83 2910.57 1624.64 2897.19 1632.36C2883.8 1640.06 2868.68 1646.07 2851.8 1650.43C2834.93 1654.82 2817.18 1657.02 2798.57 1657.02ZM2702.16 1519.95H2867.07C2865.05 1500.2 2856.47 1484.87 2841.35 1473.97C2826.21 1463.04 2807.44 1457.57 2785.03 1457.57C2770.49 1457.57 2757.18 1460.27 2745.11 1465.65C2733.02 1471.04 2723.2 1478.39 2715.64 1487.69C2708.11 1497.01 2703.61 1507.76 2702.16 1519.95Z" fill="black"/>
<path d="M2959.13 1648.7V1326.21H3011.05V1648.7H2959.13Z" fill="black"/>
<path d="M3048.57 1740.32V1426.56H3093.07L3099.6 1473.73H3100.08C3109.06 1456.54 3122.95 1443.07 3141.72 1433.33C3160.49 1423.59 3181.79 1418.71 3205.64 1418.71C3230.95 1418.71 3253.2 1423.75 3272.42 1433.8C3291.62 1443.83 3306.59 1457.79 3317.33 1475.69C3328.1 1493.56 3333.49 1514.28 3333.49 1537.84C3333.49 1561.41 3328.1 1582.07 3317.33 1599.81C3306.59 1617.56 3291.62 1631.46 3272.42 1641.51C3253.2 1651.53 3231.09 1656.55 3206.06 1656.55C3182.21 1656.55 3161.04 1651.75 3142.55 1642.17C3124.09 1632.54 3110.21 1619.29 3100.91 1602.42H3100.49V1740.32H3048.57ZM3189.96 1614.24C3207.98 1614.24 3223.82 1610.98 3237.49 1604.44C3251.15 1597.87 3261.84 1588.84 3269.57 1577.35C3277.29 1565.87 3281.15 1552.69 3281.15 1537.84C3281.15 1522.72 3277.29 1509.48 3269.57 1498.15C3261.84 1486.83 3251.15 1477.89 3237.49 1471.35C3223.82 1464.79 3207.98 1461.49 3189.96 1461.49C3172.21 1461.49 3156.43 1464.79 3142.61 1471.35C3128.79 1477.89 3118.02 1486.91 3110.3 1498.39C3102.6 1509.88 3098.77 1523.03 3098.77 1537.84C3098.77 1552.69 3102.6 1565.87 3110.3 1577.35C3118.02 1588.84 3128.79 1597.87 3142.61 1604.44C3156.43 1610.98 3172.21 1614.24 3189.96 1614.24Z" fill="black"/>
<path d="M3663.76 1659.64C3625.98 1659.64 3593.26 1652.88 3565.62 1639.38C3537.97 1625.83 3516.58 1606.76 3501.46 1582.16C3486.33 1557.56 3478.77 1528.55 3478.77 1495.12C3478.77 1461.37 3485.81 1432.2 3499.92 1407.6C3514.06 1383.01 3534.05 1363.96 3559.92 1350.45C3585.82 1336.9 3616.5 1330.13 3652 1330.13C3677.02 1330.13 3699.94 1334.44 3720.73 1343.02C3741.53 1351.62 3759.26 1363.84 3773.96 1379.68C3788.65 1395.53 3799.05 1414.36 3805.15 1436.18L3771.59 1447.11C3765.17 1421.21 3751.18 1400.64 3729.65 1385.38C3708.14 1370.1 3682.25 1362.45 3652 1362.45C3624.08 1362.45 3599.85 1367.84 3579.34 1378.61C3558.82 1389.35 3542.96 1404.68 3531.76 1424.6C3520.59 1444.53 3515.01 1468.03 3515.01 1495.12C3515.27 1521.86 3521.45 1545.2 3533.54 1565.17C3545.62 1585.1 3562.78 1600.44 3585.05 1611.21C3607.3 1621.95 3633.54 1627.31 3663.76 1627.31C3687.05 1627.31 3708.05 1623.32 3726.79 1615.31C3745.57 1607.32 3761.34 1595.97 3774.14 1581.27C3786.97 1566.58 3795.56 1549.35 3799.92 1529.58L3834.38 1539.14C3828.56 1563.59 3817.72 1584.83 3801.88 1602.9C3786.04 1620.93 3766.33 1634.89 3742.77 1644.78C3719.2 1654.67 3692.87 1659.64 3663.76 1659.64Z" fill="black"/>
<path d="M4002.77 1657.44C3975.12 1657.44 3950.47 1652.21 3928.81 1641.75C3907.14 1631.27 3890.05 1616.86 3877.54 1598.56C3865.02 1580.23 3858.77 1559.4 3858.77 1536.11C3858.77 1513.42 3864.5 1493.37 3876 1475.93C3887.52 1458.46 3903.3 1444.72 3923.35 1434.7C3943.43 1424.64 3966.42 1419.6 3992.32 1419.6C4017.89 1419.6 4040.35 1424.64 4059.69 1434.7C4079.05 1444.72 4094.26 1458.52 4105.31 1476.11C4116.36 1493.69 4121.89 1513.83 4121.89 1536.53C4121.89 1538.59 4121.89 1540.93 4121.89 1543.54C4121.89 1546.16 4121.74 1548.64 4121.47 1550.97H3895.42C3897.16 1565.79 3903.04 1578.88 3913.07 1590.24C3923.12 1601.57 3936.07 1610.44 3951.92 1616.86C3967.8 1623.24 3985.34 1626.42 4004.56 1626.42C4026.92 1626.42 4047.72 1622.29 4066.93 1614.01C4086.14 1605.73 4100.23 1595.33 4109.23 1582.81L4133.23 1600.7C4125.99 1611.75 4115.66 1621.58 4102.28 1630.17C4088.89 1638.77 4073.68 1645.47 4056.66 1650.25C4039.67 1655.03 4021.7 1657.44 4002.77 1657.44ZM3895.01 1521.74H4086.54C4085.11 1506.88 4080.02 1494.15 4071.27 1483.53C4062.55 1472.93 4051.28 1464.86 4037.47 1459.35C4023.64 1453.81 4008.15 1451.03 3991.01 1451.03C3974.14 1451.03 3958.71 1454.03 3944.73 1460.01C3930.79 1465.95 3919.44 1474.24 3910.69 1484.84C3901.97 1495.46 3896.75 1507.76 3895.01 1521.74Z" fill="black"/>
<path d="M4304.25 1419.6C4336.57 1419.6 4361.88 1428.26 4380.18 1445.57C4398.5 1462.89 4407.68 1487.1 4407.68 1518.23V1648.7H4374.06V1521.74C4374.06 1499.32 4367.14 1481.63 4353.33 1468.68C4339.54 1455.73 4320.56 1449.25 4296.41 1449.25C4266.47 1449.25 4242.47 1457.42 4224.41 1473.73C4206.38 1490.01 4197.38 1511.98 4197.38 1539.62V1648.7H4164.23V1428.34H4194.29L4197.8 1471.53H4198.21C4207.84 1454.94 4221.74 1442.15 4239.92 1433.15C4258.09 1424.12 4279.54 1419.6 4304.25 1419.6Z" fill="black"/>
<path d="M4560.8 1657.44C4535.8 1657.44 4516.19 1650.6 4501.93 1636.94C4487.67 1623.24 4480.54 1604.47 4480.54 1580.62V1455.85H4416.38V1428.34H4480.54V1360.67L4514.11 1352.82V1428.34H4635.42V1455.85H4514.11V1578C4513.82 1593.42 4517.97 1605.72 4526.52 1614.9C4535.11 1624.05 4547.14 1628.62 4562.58 1628.62C4576.25 1628.62 4588.38 1624.4 4599 1615.97C4609.6 1607.53 4616.66 1596.18 4620.15 1581.92L4648.07 1594.58C4644.86 1607.38 4638.95 1618.51 4630.37 1627.97C4621.81 1637.44 4611.49 1644.71 4599.42 1649.77C4587.33 1654.88 4574.46 1657.44 4560.8 1657.44Z" fill="black"/>
<path d="M4809.93 1657.44C4782.28 1657.44 4757.62 1652.21 4735.97 1641.75C4714.3 1631.27 4697.2 1616.86 4684.7 1598.56C4672.18 1580.23 4665.93 1559.4 4665.93 1536.11C4665.93 1513.42 4671.66 1493.37 4683.15 1475.93C4694.68 1458.46 4710.45 1444.72 4730.5 1434.7C4750.58 1424.64 4773.57 1419.6 4799.47 1419.6C4825.05 1419.6 4847.5 1424.64 4866.84 1434.7C4886.21 1444.72 4901.42 1458.52 4912.47 1476.11C4923.52 1493.69 4929.04 1513.83 4929.04 1536.53C4929.04 1538.59 4929.04 1540.93 4929.04 1543.54C4929.04 1546.16 4928.89 1548.64 4928.63 1550.97H4702.58C4704.32 1565.79 4710.2 1578.88 4720.22 1590.24C4730.28 1601.57 4743.23 1610.44 4759.08 1616.86C4774.95 1623.24 4792.49 1626.42 4811.71 1626.42C4834.08 1626.42 4854.87 1622.29 4874.09 1614.01C4893.29 1605.73 4907.39 1595.33 4916.39 1582.81L4940.39 1600.7C4933.14 1611.75 4922.82 1621.58 4909.44 1630.17C4896.04 1638.77 4880.83 1645.47 4863.81 1650.25C4846.82 1655.03 4828.85 1657.44 4809.93 1657.44ZM4702.16 1521.74H4893.69C4892.27 1506.88 4887.17 1494.15 4878.43 1483.53C4869.71 1472.93 4858.44 1464.86 4844.62 1459.35C4830.8 1453.81 4815.31 1451.03 4798.17 1451.03C4781.3 1451.03 4765.86 1454.03 4751.89 1460.01C4737.94 1465.95 4726.6 1474.24 4717.85 1484.84C4709.13 1495.46 4703.9 1507.76 4702.16 1521.74Z" fill="black"/>
<path d="M5080.87 1419.19C5102.41 1419.19 5120.08 1425.53 5133.87 1438.2C5147.68 1450.84 5155.76 1468.78 5158.1 1492.03L5128.88 1501.65C5127.12 1484.78 5121.6 1471.99 5112.3 1463.27C5102.99 1454.52 5091.06 1450.14 5076.54 1450.14C5054.11 1450.14 5036.51 1458.31 5023.72 1474.62C5010.92 1490.9 5004.54 1513.28 5004.54 1541.76V1648.7H4971.39V1428.34H5000.62L5004.06 1468.5H5004.54C5011.78 1453.05 5022.02 1440.98 5035.25 1432.26C5048.51 1423.56 5063.72 1419.19 5080.87 1419.19Z" fill="black"/>
</g>
</svg>
