<svg xmlns="http://www.w3.org/2000/svg" xmlns:xlink="http://www.w3.org/1999/xlink" width="1920" zoomAndPan="magnify" viewBox="0 0 1440 809.999993" height="1080" preserveAspectRatio="xMidYMid meet" version="1.0"><defs><g/><clipPath id="dbb9198cd8"><path d="M 117.414062 329 L 153.511719 329 L 153.511719 401.90625 L 117.414062 401.90625 Z M 117.414062 329 " clip-rule="nonzero"/></clipPath><clipPath id="515d69a314"><path d="M 117.40625 411.058594 L 186.921875 411.058594 L 186.921875 480.429688 L 117.40625 480.429688 Z M 117.40625 411.058594 " clip-rule="nonzero"/></clipPath><clipPath id="64a469290e"><path d="M 186.894531 480.429688 L 117.40625 480.429688 L 117.40625 411.058594 Z M 186.894531 480.429688 " clip-rule="nonzero"/></clipPath><clipPath id="807b8d4ca4"><path d="M 210.496094 329.238281 L 383.539062 329.238281 L 383.539062 480.429688 L 210.496094 480.429688 Z M 210.496094 329.238281 " clip-rule="nonzero"/></clipPath><clipPath id="1739f4a1cc"><path d="M 296.890625 329.238281 L 383.289062 480.429688 L 210.496094 480.429688 Z M 296.890625 329.238281 " clip-rule="nonzero"/></clipPath><clipPath id="79cefcd53a"><path d="M 438.230469 329 L 474.101562 329 L 474.101562 401.90625 L 438.230469 401.90625 Z M 438.230469 329 " clip-rule="nonzero"/></clipPath><clipPath id="077b12d04c"><path d="M 404.96875 410.914062 L 474.335938 410.914062 L 474.335938 480.421875 L 404.96875 480.421875 Z M 404.96875 410.914062 " clip-rule="nonzero"/></clipPath><clipPath id="4bc098ec67"><path d="M 474.335938 410.941406 L 474.335938 480.421875 L 404.96875 480.421875 Z M 474.335938 410.941406 " clip-rule="nonzero"/></clipPath><clipPath id="64b25d9e94"><rect x="0" width="760" y="0" height="116"/></clipPath></defs><g clip-path="url(#dbb9198cd8)"><path fill="#222222" d="M 117.414062 329.277344 C 137.476562 329.277344 153.738281 345.539062 153.738281 365.601562 C 153.738281 385.671875 137.476562 401.871094 117.414062 401.871094 Z M 117.414062 329.277344 " fill-opacity="1" fill-rule="nonzero"/></g><g clip-path="url(#515d69a314)"><g clip-path="url(#64a469290e)"><path fill="#222222" d="M 117.40625 411.058594 L 186.921875 411.058594 L 186.921875 480.429688 L 117.40625 480.429688 Z M 117.40625 411.058594 " fill-opacity="1" fill-rule="nonzero"/></g></g><g clip-path="url(#807b8d4ca4)"><g clip-path="url(#1739f4a1cc)"><path fill="#222222" d="M 210.496094 329.238281 L 383.539062 329.238281 L 383.539062 480.429688 L 210.496094 480.429688 Z M 210.496094 329.238281 " fill-opacity="1" fill-rule="nonzero"/></g></g><g clip-path="url(#79cefcd53a)"><path fill="#222222" d="M 474.328125 329.277344 C 454.265625 329.277344 438 345.539062 438 365.601562 C 438 385.671875 454.265625 401.871094 474.328125 401.871094 Z M 474.328125 329.277344 " fill-opacity="1" fill-rule="nonzero"/></g><g clip-path="url(#077b12d04c)"><g clip-path="url(#4bc098ec67)"><path fill="#222222" d="M 404.96875 410.914062 L 474.335938 410.914062 L 474.335938 480.421875 L 404.96875 480.421875 Z M 404.96875 410.914062 " fill-opacity="1" fill-rule="nonzero"/></g></g><g transform="matrix(1, 0, 0, 1, 600, 347)"><g clip-path="url(#64b25d9e94)"><g fill="#000000" fill-opacity="1"><g transform="translate(0.535842, 86.587518)"><g><path d="M 6.203125 0 L 6.203125 -81.375 L 21.34375 -81.375 L 21.34375 -48.4375 L 71.265625 -48.4375 L 71.265625 -81.375 L 86.421875 -81.375 L 86.421875 0 L 71.265625 0 L 71.265625 -36.375 L 21.34375 -36.375 L 21.34375 0 Z M 6.203125 0 "/></g></g></g><g fill="#000000" fill-opacity="1"><g transform="translate(93.141584, 86.587518)"><g><path d="M 42.921875 2.1875 C 35.191406 2.1875 28.320312 0.828125 22.3125 -1.890625 C 16.3125 -4.609375 11.609375 -8.359375 8.203125 -13.140625 C 4.796875 -17.921875 3.09375 -23.410156 3.09375 -29.609375 C 3.09375 -35.648438 4.660156 -41.003906 7.796875 -45.671875 C 10.941406 -50.335938 15.265625 -53.988281 20.765625 -56.625 C 26.273438 -59.269531 32.585938 -60.59375 39.703125 -60.59375 C 46.742188 -60.59375 52.90625 -59.289062 58.1875 -56.6875 C 63.46875 -54.09375 67.597656 -50.5 70.578125 -45.90625 C 73.566406 -41.3125 75.0625 -35.992188 75.0625 -29.953125 C 75.0625 -29.191406 75.019531 -28.347656 74.9375 -27.421875 C 74.863281 -26.503906 74.75 -25.703125 74.59375 -25.015625 L 17.671875 -25.015625 C 18.210938 -21.648438 19.6875 -18.703125 22.09375 -16.171875 C 24.5 -13.648438 27.578125 -11.679688 31.328125 -10.265625 C 35.078125 -8.847656 39.207031 -8.140625 43.71875 -8.140625 C 49.15625 -8.140625 54.28125 -9.078125 59.09375 -10.953125 C 63.914062 -12.828125 67.515625 -15.179688 69.890625 -18.015625 L 77.125 -11.25 C 75.132812 -8.644531 72.378906 -6.328125 68.859375 -4.296875 C 65.335938 -2.273438 61.359375 -0.691406 56.921875 0.453125 C 52.484375 1.609375 47.816406 2.1875 42.921875 2.1875 Z M 17.5625 -33.859375 L 60.9375 -33.859375 C 60.40625 -39.054688 58.148438 -43.085938 54.171875 -45.953125 C 50.191406 -48.828125 45.253906 -50.265625 39.359375 -50.265625 C 35.535156 -50.265625 32.035156 -49.554688 28.859375 -48.140625 C 25.679688 -46.722656 23.097656 -44.789062 21.109375 -42.34375 C 19.128906 -39.894531 17.945312 -37.066406 17.5625 -33.859375 Z M 17.5625 -33.859375 "/></g></g></g><g fill="#000000" fill-opacity="1"><g transform="translate(173.353993, 86.587518)"><g><path d="M 4.9375 0 L 4.9375 -84.8125 L 18.59375 -84.8125 L 18.59375 0 Z M 4.9375 0 "/></g></g></g><g fill="#000000" fill-opacity="1"><g transform="translate(196.878382, 86.587518)"><g><path d="M 4.9375 24.09375 L 4.9375 -58.421875 L 16.640625 -58.421875 L 18.359375 -46.015625 L 18.484375 -46.015625 C 20.847656 -50.535156 24.5 -54.078125 29.4375 -56.640625 C 34.375 -59.203125 39.976562 -60.484375 46.25 -60.484375 C 52.90625 -60.484375 58.757812 -59.160156 63.8125 -56.515625 C 68.863281 -53.878906 72.800781 -50.207031 75.625 -45.5 C 78.457031 -40.800781 79.875 -35.351562 79.875 -29.15625 C 79.875 -22.957031 78.457031 -17.523438 75.625 -12.859375 C 72.800781 -8.191406 68.863281 -4.535156 63.8125 -1.890625 C 58.757812 0.742188 52.941406 2.0625 46.359375 2.0625 C 40.085938 2.0625 34.519531 0.800781 29.65625 -1.71875 C 24.800781 -4.25 21.148438 -7.734375 18.703125 -12.171875 L 18.59375 -12.171875 L 18.59375 24.09375 Z M 42.125 -9.0625 C 46.863281 -9.0625 51.03125 -9.921875 54.625 -11.640625 C 58.21875 -13.367188 61.03125 -15.742188 63.0625 -18.765625 C 65.09375 -21.785156 66.109375 -25.25 66.109375 -29.15625 C 66.109375 -33.132812 65.09375 -36.613281 63.0625 -39.59375 C 61.03125 -42.570312 58.21875 -44.921875 54.625 -46.640625 C 51.03125 -48.367188 46.863281 -49.234375 42.125 -49.234375 C 37.457031 -49.234375 33.304688 -48.367188 29.671875 -46.640625 C 26.035156 -44.921875 23.203125 -42.550781 21.171875 -39.53125 C 19.148438 -36.507812 18.140625 -33.050781 18.140625 -29.15625 C 18.140625 -25.25 19.148438 -21.785156 21.171875 -18.765625 C 23.203125 -15.742188 26.035156 -13.367188 29.671875 -11.640625 C 33.304688 -9.921875 37.457031 -9.0625 42.125 -9.0625 Z M 42.125 -9.0625 "/></g></g></g><g fill="#000000" fill-opacity="1"><g transform="translate(279.844879, 86.587518)"><g/></g></g><g fill="#000000" fill-opacity="1"><g transform="translate(310.604106, 86.587518)"><g><path d="M 53.015625 2.875 C 43.078125 2.875 34.472656 1.097656 27.203125 -2.453125 C 19.929688 -6.015625 14.304688 -11.03125 10.328125 -17.5 C 6.347656 -23.96875 4.359375 -31.597656 4.359375 -40.390625 C 4.359375 -49.265625 6.210938 -56.9375 9.921875 -63.40625 C 13.640625 -69.875 18.898438 -74.882812 25.703125 -78.4375 C 32.515625 -82 40.585938 -83.78125 49.921875 -83.78125 C 56.503906 -83.78125 62.53125 -82.648438 68 -80.390625 C 73.46875 -78.128906 78.132812 -74.914062 82 -70.75 C 85.863281 -66.582031 88.597656 -61.628906 90.203125 -55.890625 L 81.375 -53.015625 C 79.6875 -59.828125 76.007812 -65.238281 70.34375 -69.25 C 64.6875 -73.269531 57.878906 -75.28125 49.921875 -75.28125 C 42.578125 -75.28125 36.207031 -73.863281 30.8125 -71.03125 C 25.414062 -68.207031 21.242188 -64.175781 18.296875 -58.9375 C 15.359375 -53.695312 13.890625 -47.515625 13.890625 -40.390625 C 13.960938 -33.359375 15.585938 -27.21875 18.765625 -21.96875 C 21.941406 -16.726562 26.457031 -12.691406 32.3125 -9.859375 C 38.164062 -7.035156 45.066406 -5.625 53.015625 -5.625 C 59.140625 -5.625 64.664062 -6.675781 69.59375 -8.78125 C 74.53125 -10.882812 78.679688 -13.867188 82.046875 -17.734375 C 85.421875 -21.597656 87.679688 -26.128906 88.828125 -31.328125 L 97.890625 -28.8125 C 96.359375 -22.382812 93.507812 -16.796875 89.34375 -12.046875 C 85.175781 -7.304688 79.992188 -3.632812 73.796875 -1.03125 C 67.597656 1.570312 60.671875 2.875 53.015625 2.875 Z M 53.015625 2.875 "/></g></g></g><g fill="#000000" fill-opacity="1"><g transform="translate(411.472065, 86.587518)"><g><path d="M 41.3125 2.296875 C 34.039062 2.296875 27.554688 0.921875 21.859375 -1.828125 C 16.160156 -4.585938 11.664062 -8.375 8.375 -13.1875 C 5.082031 -18.007812 3.4375 -23.484375 3.4375 -29.609375 C 3.4375 -35.578125 4.945312 -40.851562 7.96875 -45.4375 C 11 -50.03125 15.148438 -53.644531 20.421875 -56.28125 C 25.703125 -58.925781 31.75 -60.25 38.5625 -60.25 C 45.289062 -60.25 51.195312 -58.925781 56.28125 -56.28125 C 61.375 -53.644531 65.375 -50.015625 68.28125 -45.390625 C 71.1875 -40.765625 72.640625 -35.46875 72.640625 -29.5 C 72.640625 -28.957031 72.640625 -28.34375 72.640625 -27.65625 C 72.640625 -26.96875 72.601562 -26.316406 72.53125 -25.703125 L 13.078125 -25.703125 C 13.535156 -21.804688 15.082031 -18.363281 17.71875 -15.375 C 20.363281 -12.394531 23.769531 -10.0625 27.9375 -8.375 C 32.113281 -6.695312 36.726562 -5.859375 41.78125 -5.859375 C 47.664062 -5.859375 53.132812 -6.945312 58.1875 -9.125 C 63.238281 -11.300781 66.945312 -14.035156 69.3125 -17.328125 L 75.625 -12.625 C 73.71875 -9.71875 71.003906 -7.132812 67.484375 -4.875 C 63.960938 -2.613281 59.960938 -0.851562 55.484375 0.40625 C 51.015625 1.664062 46.289062 2.296875 41.3125 2.296875 Z M 12.96875 -33.390625 L 63.34375 -33.390625 C 62.96875 -37.296875 61.628906 -40.644531 59.328125 -43.4375 C 57.035156 -46.226562 54.070312 -48.347656 50.4375 -49.796875 C 46.800781 -51.253906 42.726562 -51.984375 38.21875 -51.984375 C 33.78125 -51.984375 29.722656 -51.195312 26.046875 -49.625 C 22.378906 -48.0625 19.394531 -45.882812 17.09375 -43.09375 C 14.800781 -40.300781 13.425781 -37.066406 12.96875 -33.390625 Z M 12.96875 -33.390625 "/></g></g></g><g fill="#000000" fill-opacity="1"><g transform="translate(490.077926, 86.587518)"><g><path d="M 42 -60.25 C 50.5 -60.25 57.15625 -57.972656 61.96875 -53.421875 C 66.789062 -48.867188 69.203125 -42.5 69.203125 -34.3125 L 69.203125 0 L 60.359375 0 L 60.359375 -33.390625 C 60.359375 -39.285156 58.539062 -43.9375 54.90625 -47.34375 C 51.28125 -50.75 46.289062 -52.453125 39.9375 -52.453125 C 32.0625 -52.453125 25.75 -50.304688 21 -46.015625 C 16.257812 -41.734375 13.890625 -35.957031 13.890625 -28.6875 L 13.890625 0 L 5.171875 0 L 5.171875 -57.953125 L 13.078125 -57.953125 L 14 -46.59375 L 14.109375 -46.59375 C 16.640625 -50.957031 20.296875 -54.320312 25.078125 -56.6875 C 29.859375 -59.0625 35.5 -60.25 42 -60.25 Z M 42 -60.25 "/></g></g></g><g fill="#000000" fill-opacity="1"><g transform="translate(561.568807, 86.587518)"><g><path d="M 37.984375 2.296875 C 31.410156 2.296875 26.25 0.5 22.5 -3.09375 C 18.75 -6.695312 16.875 -11.632812 16.875 -17.90625 L 16.875 -50.71875 L 0 -50.71875 L 0 -57.953125 L 16.875 -57.953125 L 16.875 -75.75 L 25.703125 -77.8125 L 25.703125 -57.953125 L 57.609375 -57.953125 L 57.609375 -50.71875 L 25.703125 -50.71875 L 25.703125 -18.59375 C 25.628906 -14.539062 26.71875 -11.304688 28.96875 -8.890625 C 31.226562 -6.484375 34.390625 -5.28125 38.453125 -5.28125 C 42.046875 -5.28125 45.238281 -6.390625 48.03125 -8.609375 C 50.820312 -10.828125 52.675781 -13.8125 53.59375 -17.5625 L 60.9375 -14.234375 C 60.09375 -10.867188 58.539062 -7.941406 56.28125 -5.453125 C 54.03125 -2.960938 51.316406 -1.050781 48.140625 0.28125 C 44.960938 1.625 41.578125 2.296875 37.984375 2.296875 Z M 37.984375 2.296875 "/></g></g></g><g fill="#000000" fill-opacity="1"><g transform="translate(623.764973, 86.587518)"><g><path d="M 41.3125 2.296875 C 34.039062 2.296875 27.554688 0.921875 21.859375 -1.828125 C 16.160156 -4.585938 11.664062 -8.375 8.375 -13.1875 C 5.082031 -18.007812 3.4375 -23.484375 3.4375 -29.609375 C 3.4375 -35.578125 4.945312 -40.851562 7.96875 -45.4375 C 11 -50.03125 15.148438 -53.644531 20.421875 -56.28125 C 25.703125 -58.925781 31.75 -60.25 38.5625 -60.25 C 45.289062 -60.25 51.195312 -58.925781 56.28125 -56.28125 C 61.375 -53.644531 65.375 -50.015625 68.28125 -45.390625 C 71.1875 -40.765625 72.640625 -35.46875 72.640625 -29.5 C 72.640625 -28.957031 72.640625 -28.34375 72.640625 -27.65625 C 72.640625 -26.96875 72.601562 -26.316406 72.53125 -25.703125 L 13.078125 -25.703125 C 13.535156 -21.804688 15.082031 -18.363281 17.71875 -15.375 C 20.363281 -12.394531 23.769531 -10.0625 27.9375 -8.375 C 32.113281 -6.695312 36.726562 -5.859375 41.78125 -5.859375 C 47.664062 -5.859375 53.132812 -6.945312 58.1875 -9.125 C 63.238281 -11.300781 66.945312 -14.035156 69.3125 -17.328125 L 75.625 -12.625 C 73.71875 -9.71875 71.003906 -7.132812 67.484375 -4.875 C 63.960938 -2.613281 59.960938 -0.851562 55.484375 0.40625 C 51.015625 1.664062 46.289062 2.296875 41.3125 2.296875 Z M 12.96875 -33.390625 L 63.34375 -33.390625 C 62.96875 -37.296875 61.628906 -40.644531 59.328125 -43.4375 C 57.035156 -46.226562 54.070312 -48.347656 50.4375 -49.796875 C 46.800781 -51.253906 42.726562 -51.984375 38.21875 -51.984375 C 33.78125 -51.984375 29.722656 -51.195312 26.046875 -49.625 C 22.378906 -48.0625 19.394531 -45.882812 17.09375 -43.09375 C 14.800781 -40.300781 13.425781 -37.066406 12.96875 -33.390625 Z M 12.96875 -33.390625 "/></g></g></g><g fill="#000000" fill-opacity="1"><g transform="translate(702.370835, 86.587518)"><g><path d="M 33.96875 -60.359375 C 39.632812 -60.359375 44.28125 -58.691406 47.90625 -55.359375 C 51.539062 -52.035156 53.664062 -47.316406 54.28125 -41.203125 L 46.59375 -38.671875 C 46.132812 -43.109375 44.679688 -46.472656 42.234375 -48.765625 C 39.785156 -51.066406 36.648438 -52.21875 32.828125 -52.21875 C 26.929688 -52.21875 22.300781 -50.070312 18.9375 -45.78125 C 15.570312 -41.5 13.890625 -35.613281 13.890625 -28.125 L 13.890625 0 L 5.171875 0 L 5.171875 -57.953125 L 12.859375 -57.953125 L 13.765625 -47.390625 L 13.890625 -47.390625 C 15.796875 -51.453125 18.488281 -54.628906 21.96875 -56.921875 C 25.457031 -59.210938 29.457031 -60.359375 33.96875 -60.359375 Z M 33.96875 -60.359375 "/></g></g></g></g></g></svg>